<svg width="150" height="115" xmlns="http://www.w3.org/2000/svg"><g fill="none" fill-rule="evenodd"><path d="M100.257 63.934H52.088V52.92h60.586c.17.298.34.458.34.615.18 10.78-1.338 21.234-5.946 31.105-7.386 15.833-19.987 25.324-36.824 28.835-23.063 4.79-42.719-1.671-57.909-19.854C3.395 82.942-.068 70.175.001 56.334.148 26.825 21.712 5.004 48.441.814 66.023-1.94 82.123 2.29 96.091 13.607c5.95 4.819 9.887 11.152 13.419 18.247l-11.015 3.997c-1.812-2.395-3.577-4.782-5.399-7.122C86.842 20.68 78.84 15.224 68.8 13.126c-16.422-3.391-36.33 1.184-47.134 16.6-16.454 23.51-9.915 57.865 18.805 69.83 20.976 8.742 48.036.77 57.38-23.406 1.426-3.754 2.7-7.577 2.406-12.216z" fill="#595959" fill-rule="nonzero"/><path d="M149.895 57.624l-39.967-41.542s13.866 20.343 14.231 41.18c.36 20.718-14.14 41.912-14.231 41.908l39.967-41.546z" fill="#01A8A5"/></g></svg>